<?xml version="1.0" standalone="no"?><!DOCTYPE svg PUBLIC "-//W3C//DTD SVG 1.1//EN" "http://www.w3.org/Graphics/SVG/1.1/DTD/svg11.dtd"><svg t="1626772895013" class="icon" viewBox="0 0 1024 1024" version="1.1" xmlns="http://www.w3.org/2000/svg" p-id="7250" xmlns:xlink="http://www.w3.org/1999/xlink" width="200" height="200"><defs><style type="text/css"></style></defs><path d="M741.96323545 731.48529395c-39.70588271 0-71.69117607-31.98529424-71.69117696-70.58823487 0-39.70588271 31.98529424-71.69117607 71.69117696-71.69117695s71.69117607 31.98529424 71.69117608 71.69117695c-1.10294121 38.60294151-33.08823545 70.58823487-71.69117608 70.58823487z m0-98.16176426c-15.44117607 0-27.5735294 12.13235333-27.57352939 27.57352939s12.13235333 26.47058818 27.57352939 26.47058819 27.5735294-12.13235333 27.57352939-26.47058819-13.23529453-27.5735294-27.57352939-27.57352939z" p-id="7251"></path><path d="M741.96323545 916.77941211c-6.61764727 0-13.23529453-3.30882364-17.64705938-8.82352969-13.23529453-17.64705849-130.14705849-173.16176484-130.14705849-248.16176455 0-39.70588271 15.44117607-76.10294092 43.01470635-104.7794124 27.5735294-27.5735294 65.07352969-43.01470547 103.67647031-43.01470547 81.61764697 0 147.79411787 66.17647089 147.79411787 147.79411787 0 74.99999971-115.80882363 230.51470606-129.04411816 248.16176455-4.41176484 5.51470605-11.02941211 8.82352969-17.6470585 8.82352969z m0-359.55882422c-27.5735294 0-54.04411758 11.02941211-72.79411816 29.77941182-19.85294092 19.85294092-29.77941182 45.22058789-29.77941182 72.79411816 0 39.70588271 57.35294122 133.45588213 103.67647119 197.4264706 45.22058789-63.97058847 102.57352911-157.72058789 102.5735291-197.4264706-1.10294121-56.25-47.42647031-102.57352911-103.67647031-102.57352998zM707.77205879 289.20588242h-397.05882363c-12.13235333 0-22.05882334-9.92647089-22.05882334-22.05882334s9.92647089-22.05882334 22.05882334-22.05882421h397.05882362c12.13235333 0 22.05882334 9.92647089 22.05882335 22.05882421s-9.92647089 22.05882334-22.05882334 22.05882334zM707.77205879 442.51470547h-397.05882363c-12.13235333 0-22.05882334-9.92647089-22.05882334-22.05882334s9.92647089-22.05882334 22.05882334-22.05882335h397.05882362c12.13235333 0 22.05882334 9.92647089 22.05882335 22.05882335s-9.92647089 22.05882334-22.05882334 22.05882334zM548.94852969 594.72058818H310.71323516c-12.13235333 0-22.05882334-9.92647089-22.05882334-22.05882334s9.92647089-22.05882334 22.05882334-22.05882333h239.33823573c12.13235333 0 22.05882334 9.92647089 22.05882335 22.05882333s-11.02941211 22.05882334-23.16176455 22.05882334zM157.40441211 864.94117607c-12.13235333 0-22.05882334-9.92647089-22.05882422-22.05882334C135.34558789 783.3235291 184.97794151 734.79411758 244.53676513 734.79411758h305.51470577c12.13235333 0 22.05882334 9.92647089 22.05882334 22.05882334s-9.92647089 22.05882334-22.05882334 22.05882421H244.53676513C209.24264727 778.91176513 179.46323545 807.58823487 179.46323545 842.88235273c0 12.13235333-9.92647089 22.05882334-22.05882334 22.05882334z" p-id="7252"></path><path d="M859.97794151 962H244.53676513c-59.55882364 0-108.08823516-48.52941152-109.19117724-108.08823516V171.19117637C135.34558789 110.52941153 183.87500029 62 244.53676513 62h529.41176456c59.55882364 0 108.08823516 48.52941152 108.08823515 109.19117636v314.33823546c0 12.13235333-9.92647089 22.05882334-22.05882333 22.05882334s-22.05882334-9.92647089-22.05882422-22.05882334V171.19117637c0-35.29411787-28.6764706-63.97058847-65.07352881-65.07352969h-529.41176455C208.13970606 106.11764668 179.46323545 134.79411729 179.46323545 171.19117637v682.72058847c0 35.29411787 28.6764706 63.97058847 65.07352968 63.97058848h616.54411758c12.13235333 0 22.05882334 9.92647089 22.05882334 22.05882334s-11.02941211 22.05882334-23.16176454 22.05882334z" fill="#4B4848" p-id="7253"></path></svg>
