<?xml version="1.0" encoding="UTF-8"?>
<svg width="24px" height="24px" viewBox="0 0 24 24" version="1.1" xmlns="http://www.w3.org/2000/svg" xmlns:xlink="http://www.w3.org/1999/xlink">
    <!-- Generator: Sketch 57.1 (83088) - https://sketch.com -->
    <title>function/aim@1.5x</title>
    <desc>Created with Sketch.</desc>
    <g id="function/aim" stroke="none" stroke-width="1">
        <g id="编组-3" transform="translate(1.000000, 1.000000)">
            <g id="销售目标" transform="translate(1.000000, 1.000000)">
                <g id="编组">
                    <path d="M10,18.3448267 C14.6087467,18.3448267 18.3448,14.6086933 18.3448,10 C18.3448,5.39125333 14.6086933,1.65517333 10,1.65517333 C5.39125333,1.65517333 1.65517333,5.39130667 1.65517333,10 C1.65517333,14.6087467 5.39128,18.3448267 9.99997333,18.3448267 L10,18.3448267 Z M10,20 C4.47717333,20 0,15.5228533 0,10 C0,4.4772 4.47714667,0 10,0 C15.5228,0 20,4.47714667 20,10 C20,15.5228 15.5228533,20 10,20 L10,20 Z" id="形状"></path>
                    <path d="M10,11.51032 C10.83412,11.51032 11.51032,10.83412 11.51032,10 C11.51032,9.16588 10.83412,8.48968 10,8.48968 C9.16588,8.48968 8.48968,9.16588 8.48968,10 C8.48968,10.83412 9.165856,11.51032 10,11.51032 Z M10,13 C8.343112,13 7,11.656864 7,10 C7,8.343136 8.343112,7 10,7 C11.656888,7 13,8.343136 13,10 C13,11.656864 11.656864,13 10,13 Z" id="形状"></path>
                </g>
            </g>
            <g id="编组-5">
                <path d="M11,0 C11.5522847,-1.01453063e-16 12,0.44771525 12,1 L12,4 C12,4.55228475 11.5522847,5 11,5 C10.4477153,5 10,4.55228475 10,4 L10,1 C10,0.44771525 10.4477153,1.01453063e-16 11,0 Z" id="矩形"></path>
                <rect id="矩形" x="10" y="17" width="2" height="5" rx="1"></rect>
                <rect id="矩形" transform="translate(2.500000, 11.000000) rotate(90.000000) translate(-2.500000, -11.000000) " x="1.5" y="8.5" width="2" height="5" rx="1"></rect>
                <path d="M19.5,8.5 C20.0522847,8.5 20.5,8.94771525 20.5,9.5 L20.5,12.5 C20.5,13.0522847 20.0522847,13.5 19.5,13.5 C18.9477153,13.5 18.5,13.0522847 18.5,12.5 L18.5,9.5 C18.5,8.94771525 18.9477153,8.5 19.5,8.5 Z" id="矩形" transform="translate(19.500000, 11.000000) rotate(90.000000) translate(-19.500000, -11.000000) "></path>
            </g>
        </g>
    </g>
</svg>
