<?xml version="1.0" standalone="no"?><!DOCTYPE svg PUBLIC "-//W3C//DTD SVG 1.1//EN" "http://www.w3.org/Graphics/SVG/1.1/DTD/svg11.dtd"><svg t="1626772885711" class="icon" viewBox="0 0 1024 1024" version="1.1" xmlns="http://www.w3.org/2000/svg" p-id="6966" xmlns:xlink="http://www.w3.org/1999/xlink" width="200" height="200"><defs><style type="text/css"></style></defs><path d="M512.60000029 460.49999961A118.7499999 118.7499999 0 1 0 397.49999961 341.79999981 117.0500001 117.0500001 0 0 0 512.60000029 460.49999961z m0-179.9499999a61.2500001 61.2500001 0 1 1-59.3499999 61.2 60.3500001 60.3500001 0 0 1 59.3499999-61.14999991z m-15.55000048 429.50000039l15.6499998 10.85000009 15.60000059-11.00000039c169.49999971-119.40000029 255.39999961-243.29999971 255.3999996-368.0499999A275.7999999 275.7999999 0 0 0 512.60000029 62.15000029a275.7999999 275.7999999 0 0 0-271.20000058 279.64999951c0.0500001 177.2499999 195.6999999 326.7 255.65000009 368.2500003z m15.50000039-590.4a219.0999999 219.0999999 0 0 1 215.34999961 222.1999998c0 101.00000039-72.5000001 205.04999971-215.44999981 309.40000049-106.85000039-77.9000001-215.30000039-196.7000001-215.30000039-309.40000049a219.0999999 219.0999999 0 0 1 215.45000068-222.1999998zM408.5 774.8a28.7499999 28.7499999 0 0 0 0 57.49999981h213.95000039a28.7499999 28.7499999 0 0 0 0-57.49999981h-214.00000049z m545.9000001 40.29999961l-38.54999971-120.84999961a106.9999998 106.9999998 0 0 0-101.50000049-75.80000039H748.99999971a28.7499999 28.7499999 0 0 0 0 57.50000068h65.1999999c22.39999981 0.15000029 42.09999961 14.85 48.6500001 36.24999961l38.55000058 120.89999971c5.24999971 15.99999961 2.59999981 33.59999971-7.1499999 47.40000029a50.15000039 50.15000039 0 0 1-41.4 21.80000039H169.1c-16.5999999 0.0500001-32.15000039-8.1-41.5000002-21.80000039a53.6000001 53.6000001 0 0 1-7.1499999-47.40000029l38.54999971-120.89999971c6.54999961-21.39999961 26.25000029-36.1000002 48.6500001-36.24999961h75.15a28.7499999 28.7499999 0 0 0 0-57.50000068H207.64999971a106.9999998 106.9999998 0 0 0-101.49999961 75.80000039l-38.50000049 120.84999961a111.9999999 111.9999999 0 0 0 14.9000001 99.15000029c19.55000039 28.50000029 51.99999961 45.60000029 86.55000029 45.5500002h683.75000039c34.5999999 0.0500001 66.9999999-16.99999981 86.54999941-45.6000003 20.3000001-28.8500001 25.85000039-65.49999961 14.9500002-99.10000019z" p-id="6967"></path></svg>