<svg xmlns="http://www.w3.org/2000/svg" width="132" height="132"><path d="M53.5 69.6H32.3c-2.3 0-4.3 1-5.9 2.3-1.7 1.6-2.3 3.6-2.3 5.9V99c0 2.3 1 4.3 2.3 5.9 1.6 1.7 3.6 2.3 5.9 2.3h21.1c2.3 0 4.3-1 5.9-2.3 1.6-1.7 2.3-3.6 2.3-5.9V77.9c0-2.3-1-4.3-2.3-5.9-1.5-1.4-3.5-2.4-5.8-2.4zm1 29.4c0 .3 0 .7-.3.7-.3.3-.3.3-.7.3H32.3c-.3 0-.7 0-.7-.3-.3-.3-.3-.3-.3-.7V77.9c0-.3 0-.7.3-.7.3-.3.3-.3.7-.3h21.1c.3 0 .7 0 .7.3.3.3.3.3.3.7V99zm-1-71.9H32.3c-2.3 0-4.3 1-5.9 2.3-1.7 1.7-2.6 3.6-2.6 5.9v21.1c0 2.3 1 4.3 2.3 5.9 1.3 1.7 4 2.3 6.3 2.3h21.1c2.3 0 4.3-1 5.9-2.3 1.6-1.6 2.3-3.6 2.3-5.9V35.3c0-2.3-1-4.3-2.3-5.9-1.6-1.7-3.6-2.3-5.9-2.3zm1 29.3c0 .3 0 .7-.3.7-.3.3-.3.3-.7.3H32.3c-.3 0-.7 0-.7-.3s-.3-.3-.3-.7V35.3c0-.3 0-.7.3-.7s.3-.3.7-.3h21.1c.3 0 .7 0 .7.3.3.3.3.3.3.7v21.1zM97 69.6H75.9c-2.3 0-4.3 1-5.9 2.3-1.7 1.6-2.3 3.6-2.3 5.9V99c0 2.3 1 4.3 2.3 5.9 1.6 1.7 3.6 2.3 5.9 2.3H97c2.3 0 4.3-1 5.9-2.3 1.6-1.7 2.3-3.6 2.3-5.9V77.9c0-2.3-1-4.3-2.3-5.9-1.6-1.4-3.6-2.4-5.9-2.4zm1 29.7c0 .3 0 .7-.3.7-.3.3-.3.3-.7.3H75.9c-.3 0-.7 0-.7-.3s-.3-.3-.3-.7V78.2c0-.3 0-.7.3-.7.3-.3.3-.3.7-.3H97c.3 0 .7 0 .7.3.3.3.3.3.3.7v21.1zm8.9-56.1c-.3-1-1-2-1.6-2.6L92.4 27.1c-.7-.7-1.7-1.3-2.6-1.7-1-.3-2-.7-3.3-.7-1 0-2 .3-3 .7-1 .3-2 1-2.6 1.7L68 39.6c-.7.7-1.3 1.7-1.7 2.6s-.7 2-.7 3 0 2 .7 3c.3 1 1 2 1.7 2.6l12.9 13.5c.7.7 1.6 1.3 2.6 1.6s2 .7 3.3.7c1 0 2-.3 3-.7s2-1 2.6-1.6l13.5-12.9c.7-.7 1.3-1.6 1.7-2.6.3-1 .7-2 .7-3-1.1-.6-1.1-1.6-1.4-2.6zM86.1 59.1l1.3 1.3-1.7-1.3-12.8-13.6v-.3l13.5-12.9-1-1.3 1.3 1.6 12.9 13.5-13.5 13z"/></svg>