<?xml version="1.0" standalone="no"?><!DOCTYPE svg PUBLIC "-//W3C//DTD SVG 1.1//EN" "http://www.w3.org/Graphics/SVG/1.1/DTD/svg11.dtd"><svg t="1626772892053" class="icon" viewBox="0 0 1024 1024" version="1.1" xmlns="http://www.w3.org/2000/svg" p-id="7108" xmlns:xlink="http://www.w3.org/1999/xlink" width="200" height="200"><defs><style type="text/css"></style></defs><path d="M172.15514281 808.57142844L851.84485812 808.57142844C879.12308656 808.57142844 901.14285688 830.49781812 901.14285688 857.62668125L901.14285688 915.522365C901.14285688 911.24993563 904.82487875 907.52288 909.14634594 907.52288L114.853655 907.52288C119.13998937 907.52288 122.85714312 911.19987875 122.85714312 915.522365L122.85714312 857.62668125C122.85714312 830.63263625 145.03781469 808.57142844 172.15514281 808.57142844ZM78.28571469 915.522365C78.28571469 935.92501813 94.63158594 952.09430844 114.853655 952.09430844L909.14634594 952.09430844C929.56309531 952.09430844 945.71428531 935.74559094 945.71428531 915.522365L945.71428531 857.62668125C945.71428531 805.83919625 903.69690313 764 851.84485812 764L172.15514281 764C120.47541781 764 78.28571469 805.96247094 78.28571469 857.62668125L78.28571469 915.522365ZM123.90556063 307.38395656L502.50906313 95.34612312C509.43665937 91.46630469 523.0774775 91.53601719 530.16796531 95.59262656L899.73333687 307.02826437C899.66978469 306.99190531 901.14285688 309.50639375 901.14285688 308.94113844L901.14285688 353.65216156C901.14285688 349.14818281 904.91490969 345.39805156 909.14634594 345.39805156L114.853655 345.39805156C119.44030625 345.39805156 122.85714312 348.82661844 122.85714312 353.65216156L122.85714312 308.94113844C122.85714312 309.29479344 124.0305725 307.31394406 123.90556063 307.38395656ZM78.28571469 353.65216156C78.28571469 373.40860719 94.78992406 389.96948 114.853655 389.96948L909.14634594 389.96948C929.47306437 389.96948 945.71428531 373.82264375 945.71428531 353.65216156L945.71428531 308.94113844C945.71428531 293.44498062 935.61550062 276.206675 921.86711094 268.34095063L552.30174313 56.90531281C531.6322775 45.07990438 501.32273281 44.92500688 480.72975875 56.45815438L102.12625719 268.49598687C88.24505188 276.27019062 78.28571469 293.08241188 78.28571469 308.94113844L78.28571469 353.65216156ZM237.71428531 755.93872906C237.71428531 768.24678969 247.69193938 778.22444375 259.99999906 778.22444375 272.30805875 778.22444375 282.28571375 768.24678969 282.28571375 755.93872906L282.28571469 477.71428531C282.28571469 465.40622469 272.30806062 455.42857156 260 455.42857156 247.69193938 455.42857156 237.71428531 465.40622469 237.71428531 477.71428531L237.71428531 755.93872906ZM409.14285687 755.93872906C409.14285687 768.24678969 419.12051094 778.22444375 431.42857156 778.22444375 443.73663219 778.22444375 453.71428531 768.24678969 453.71428531 755.93872906L453.71428531 477.71428531C453.71428531 465.40622469 443.73663219 455.42857156 431.42857156 455.42857156 419.12051094 455.42857156 409.14285687 465.40622469 409.14285687 477.71428531L409.14285687 755.93872906ZM580.57142844 755.93872906C580.57142844 768.24678969 590.5490825 778.22444375 602.85714313 778.22444375 615.16520375 778.22444375 625.14285688 768.24678969 625.14285688 755.93872906L625.14285688 477.71428531C625.14285688 465.40622469 615.16520375 455.42857156 602.85714313 455.42857156 590.5490825 455.42857156 580.57142844 465.40622469 580.57142844 477.71428531L580.57142844 755.93872906ZM752 755.93872906C752 768.24678969 761.97765406 778.22444375 774.28571469 778.22444375 786.59377531 778.22444375 796.57142844 768.24678969 796.57142844 755.93872906L796.57142844 477.71428531C796.57142844 465.40622469 786.59377531 455.42857156 774.28571469 455.42857156 761.97765406 455.42857156 752 465.40622469 752 477.71428531L752 755.93872906Z" p-id="7109"></path></svg>