<?xml version="1.0" standalone="no"?><!DOCTYPE svg PUBLIC "-//W3C//DTD SVG 1.1//EN" "http://www.w3.org/Graphics/SVG/1.1/DTD/svg11.dtd"><svg class="icon" width="200px" height="200.00px" viewBox="0 0 1024 1024" version="1.1" xmlns="http://www.w3.org/2000/svg"><path d="M309.333333 341.333333h405.333334a32 32 0 0 1 0 64h-405.333334a32 32 0 0 1 0-64z m0 192h405.333334a32 32 0 0 1 0 64h-405.333334a32 32 0 0 1 0-64z m0 170.666667h277.333334a32 32 0 0 1 0 64h-277.333334a32 32 0 0 1 0-64zM192 42.666667h82.517333a42.666667 42.666667 0 0 1 36.586667 20.714666l45.354667 75.584a21.333333 21.333333 0 0 0 18.282666 10.368h274.517334a21.333333 21.333333 0 0 0 18.282666-10.368l45.354667-75.584A42.666667 42.666667 0 0 1 749.482667 42.666667H832a85.333333 85.333333 0 0 1 85.333333 85.333333v768a85.333333 85.333333 0 0 1-85.333333 85.333333H192a85.333333 85.333333 0 0 1-85.333333-85.333333V128a85.333333 85.333333 0 0 1 85.333333-85.333333z m70.421333 64H192a21.333333 21.333333 0 0 0-21.333333 21.333333v768a21.333333 21.333333 0 0 0 21.333333 21.333333h640a21.333333 21.333333 0 0 0 21.333333-21.333333V128a21.333333 21.333333 0 0 0-21.333333-21.333333h-70.421333l-39.146667 65.237333A85.333333 85.333333 0 0 1 649.258667 213.333333H374.741333a85.333333 85.333333 0 0 1-73.173333-41.429333L262.421333 106.666667zM416 42.666667h192a32 32 0 0 1 0 64h-192a32 32 0 0 1 0-64z" /></svg>
