<?xml version="1.0" standalone="no"?><!DOCTYPE svg PUBLIC "-//W3C//DTD SVG 1.1//EN" "http://www.w3.org/Graphics/SVG/1.1/DTD/svg11.dtd"><svg t="1606115497766" class="icon" viewBox="0 0 1024 1024" version="1.1" xmlns="http://www.w3.org/2000/svg" p-id="1378" xmlns:xlink="http://www.w3.org/1999/xlink" width="200" height="200"><defs><style type="text/css"></style></defs><path d="M52.45617408 193.85427437h919.08765184c21.20971504 0 35.34952507-14.13981003 35.34952505-35.34952507s-14.13981003-35.34952507-35.34952505-35.34952507h-919.08765184c-21.20971504 0-35.34952507 14.13981003-35.34952505 35.34952507s14.13981003 35.34952507 35.34952505 35.34952507zM971.54382592 476.65047493H384.74170975c-21.20971504 0-35.34952507 14.13981003-35.34952507 35.34952507s14.13981003 35.34952507 35.34952507 35.34952507h586.80211617c21.20971504 0 35.34952507-14.13981003 35.34952505-35.34952507s-14.13981003-35.34952507-35.34952505-35.34952507zM971.54382592 830.14572563h-919.08765184c-21.20971504 0-35.34952507 14.13981003-35.34952505 35.34952507s14.13981003 35.34952507 35.34952505 35.34952507h919.08765184c21.20971504 0 35.34952507-14.13981003 35.34952505-35.34952507s-14.13981003-35.34952507-35.34952505-35.34952507zM229.20379943 292.83294457L17.10664903 512l212.0971504 219.16705543z" p-id="1379"></path></svg>