<svg xmlns="http://www.w3.org/2000/svg" width="132" height="132"><path d="M102.3 88.1H77.9c-1.7 0-3 1.7-3.3 3.3 0 .7.3 1.7 1 2.3.7.7 1.3 1 2.3 1h24.4c.7 0 1.7-.3 2.3-1 .7-.7 1-1.3 1-2.3 0-2-1.3-3.3-3.3-3.3zM75.6 75.9c-.7.7-1 1.3-1 2.3 0 1 .3 1.6 1 2.3.7.7 1.3 1 2.3 1h24.4c.7 0 1.7-.3 2.3-1 .7-.7 1-1.3 1-2.3 0-2-1.3-3.3-3.3-3.3H77.9c-1-.3-1.7.3-2.3 1zm13.5-27.1c0-13.9-11.2-25.4-25.4-25.4-8.6 0-16.5 4.3-21.1 11.5-7.9 11.9-4.6 27.4 6.9 35-14.2 5.9-23.8 19.5-23.8 35 0 2 1.7 3.6 3.6 3.6s3.6-1.7 3.6-3.6c0-16.8 13.9-30.7 30.7-30.7 14.3 0 25.5-11.2 25.5-25.4zM72.9 65c-3 1.3-5.9 2.3-9.2 2.3-10.2 0-18.5-8.2-18.5-18.5 0-10.2 8.2-18.5 18.5-18.5 6.9 0 12.9 3.6 16.2 9.2 4.9 9 1.9 20.6-7 25.5zm29.4 36.6H77.9c-1.7 0-3.3 1.6-3.3 3.3s1.3 3.3 3.3 3.3h24.4c1.7 0 3.3-1.6 3.3-3.3s-1.3-3.3-3.3-3.3z"/></svg>