<?xml version="1.0" standalone="no"?><!DOCTYPE svg PUBLIC "-//W3C//DTD SVG 1.1//EN" "http://www.w3.org/Graphics/SVG/1.1/DTD/svg11.dtd"><svg t="1626772897297" class="icon" viewBox="0 0 1024 1024" version="1.1" xmlns="http://www.w3.org/2000/svg" p-id="7394" xmlns:xlink="http://www.w3.org/1999/xlink" width="200" height="200"><defs><style type="text/css"></style></defs><path d="M926.7934962 971.12690596h-841.98651283c-19.33734829 0-35.13197575-15.79462747-35.13197574-35.13197697 0-19.33734829 15.79462747-35.13197575 35.13197574-35.13197576h35.13197577V129.14039314c0-38.52708281 31.58925616-70.11633774 70.11633773-70.11633896h385.86128066c38.52708281 0 70.11633774 31.44164238 70.11633895 70.11633896v175.512265h175.65987877c38.52708281 0 70.11633774 31.44164238 70.11633775 70.11633897v526.24156989h35.13197576c19.33734829 0 34.98436198 15.79462747 34.98436319 35.13197576 0 19.18973452-15.79462747 34.98436198-35.13197575 34.9843632z m-350.7293049-596.35790885V124.12153946H190.05529687v776.74141377h385.86128066V374.76899711z m245.62860395 0H646.18052903v526.24156989H821.69279525V374.76899711z m-105.24831471 140.23267669h35.13197577c19.33734829 0 35.13197575 15.79462747 35.13197575 35.13197574 0 19.33734829-15.79462747 35.13197575-35.13197575 35.13197577h-35.13197577c-19.33734829 0-35.13197575-15.79462747-35.13197574-35.13197577 0-19.33734829 15.79462747-35.13197575 35.13197574-35.13197574z m0 175.36465123h35.13197577c19.33734829 0 35.13197575 15.79462747 35.13197575 35.13197697 0 19.33734829-15.79462747 35.13197575-35.13197575 35.13197576h-35.13197577c-19.33734829 0-35.13197575-15.79462747-35.13197574-35.13197576 0-19.33734829 15.79462747-35.13197575 35.13197574-35.13197697z m-420.99325519-420.9932552h175.51226501c19.33734829 0 35.13197575 15.79462747 35.13197576 35.13197576 0 19.33734829-15.79462747 35.13197575-35.13197576 35.13197575h-175.51226501c-19.33734829 0-34.98436198-15.79462747-35.13197697-35.13197575 0-19.33734829 15.79462747-35.13197575 35.13197697-35.13197576z m0 210.4966282h175.51226501c19.33734829 0 35.13197575 15.79462747 35.13197576 35.13197577 0 19.33734829-15.79462747 35.13197575-35.13197576 35.13197574h-175.51226501c-19.33734829 0-35.13197575-15.79462747-35.13197697-35.13197574 0-19.33734829 15.79462747-35.13197575 35.13197697-35.13197577z m0 210.496627h175.51226501c19.33734829 0 35.13197575 15.79462747 35.13197576 35.13197697 0 19.33734829-15.79462747 35.13197575-35.13197576 35.13197576h-175.51226501c-19.33734829 0-35.13197575-15.79462747-35.13197697-35.13197576 0-19.33734829 15.79462747-35.13197575 35.13197697-35.13197697z" p-id="7395"></path></svg>
