<?xml version="1.0" standalone="no"?><!DOCTYPE svg PUBLIC "-//W3C//DTD SVG 1.1//EN" "http://www.w3.org/Graphics/SVG/1.1/DTD/svg11.dtd"><svg class="icon" width="200px" height="175.04px" viewBox="0 0 1170 1024" version="1.1" xmlns="http://www.w3.org/2000/svg"><path d="M648.102087 438.862158c-22.381522 0-43.739054 5.363764-62.902318 15.603676A132.923813 132.923813 0 0 0 522.151166 438.862158C449.301505 438.862158 390.10506 497.034612 390.10506 568.567713c0 44.031623 31.402398 92.841871 93.231963 145.065423 42.910108 36.376069 85.332602 61.536996 87.136777 62.512227a28.281662 28.281662 0 0 0 14.579684 4.047203c5.119956 0 10.191151-1.365322 14.628446-3.900919 1.706652-1.121514 44.226669-25.892349 87.283062-62.073373C748.89208 662.189768 780.196955 613.135712 780.196955 568.567713 780.196955 497.034612 720.951748 438.862158 648.102087 438.862158z m6.338993 240.589176c-26.331203 22.771614-53.052498 41.300979-69.19255 51.979745a696.118986 696.118986 0 0 1-69.241311-52.46736C466.221741 635.663519 438.866547 596.264238 438.866547 567.885052 438.866547 523.707145 474.608717 487.623645 518.494055 487.623645c17.70042 0 34.42561 5.705094 48.371395 16.481383a29.793268 29.793268 0 0 0 36.571115 0c13.848262-10.727527 30.866021-16.578906 48.371395-16.481383 43.885338 0 79.627508 36.034739 79.627508 80.261407 0 28.964323-27.306433 68.461127-76.994388 111.566282z"  /><path d="M1157.757147 468.021527L607.239961 8.785845a38.424052 38.424052 0 0 0-48.907771 0L12.203537 471.776162a35.352078 35.352078 0 0 0-9.996104 39.009189 37.887675 37.887675 0 0 0 36.717399 22.917899h74.507552v363.614407c-2.779405 33.060288 7.55803 65.828007 28.915562 91.915403a113.614264 113.614264 0 0 0 86.795446 34.669417H923.068111a134.874273 134.874273 0 0 0 87.819438-31.49992c26.818818-24.868358 41.057172-59.781583 38.960428-95.572515V530.533754h85.088794c9.947343-0.536376 19.260787-4.876149 25.89235-11.995326a34.815702 34.815702 0 0 0-3.120736-50.516901z m-145.114185-4.242249h-0.585138a37.351299 37.351299 0 0 0-25.59978 11.068858 34.42561 34.42561 0 0 0-9.947344 25.209688v398.868962a46.274651 46.274651 0 0 1-12.775509 41.837356 50.711946 50.711946 0 0 1-42.861347 14.238354H227.973117a39.886896 39.886896 0 0 1-31.109829-9.606013 63.048602 63.048602 0 0 1-9.459728-40.569557v-404.232725l1.65789-2.681882c-0.292569-19.309549-16.578906-34.913225-36.668638-35.205794h-14.482162l444.851045-380.729689 456.017424 381.802442h-26.136157z"  /></svg>
