<?xml version="1.0" standalone="no"?><!DOCTYPE svg PUBLIC "-//W3C//DTD SVG 1.1//EN" "http://www.w3.org/Graphics/SVG/1.1/DTD/svg11.dtd"><svg class="icon" width="200px" height="185.84px" viewBox="0 0 1102 1024" version="1.1" xmlns="http://www.w3.org/2000/svg"><path d="M112.64 472.615385a37.336615 37.336615 0 0 1-27.096615-12.918154 40.014769 40.014769 0 0 1 6.144-51.830154l309.563077-263.719385a30.956308 30.956308 0 0 1 44.898461 4.332308L635.667692 379.588923l334.532923-292.785231a30.72 30.72 0 0 1 46.552616 6.22277c11.657846 15.990154 8.900923 39.384615-5.513846 51.751384L652.209231 458.436923a30.956308 30.956308 0 0 1-44.898462-4.332308L417.949538 222.444308 132.647385 465.211077A29.932308 29.932308 0 0 1 112.718769 472.615385z m955.864615 482.697846a34.422154 34.422154 0 0 1 0 68.686769H34.264615A34.422154 34.422154 0 0 1 0 989.656615V34.343385C0 15.438769 15.438769 0 34.264615 0 53.169231 0 68.529231 15.438769 68.529231 34.343385v920.969846h145.723077V572.100923c0-18.904615 15.438769-34.343385 34.264615-34.343385 18.904615 0 34.343385 15.438769 34.343385 34.343385v383.212308h145.723077V463.399385c0-18.904615 15.36-34.343385 34.264615-34.343385 18.825846 0 34.264615 15.438769 34.264615 34.343385v491.913846h145.723077V612.115692c0-18.904615 15.36-34.343385 34.264616-34.343384s34.264615 15.438769 34.264615 34.343384v343.197539h145.723077V446.227692c0-18.904615 15.438769-34.343385 34.264615-34.343384 18.904615 0 34.264615 15.438769 34.264616 34.343384v509.085539h142.887384z" /></svg>
