<?xml version="1.0" standalone="no"?><!DOCTYPE svg PUBLIC "-//W3C//DTD SVG 1.1//EN" "http://www.w3.org/Graphics/SVG/1.1/DTD/svg11.dtd"><svg class="icon" width="200px" height="200.00px" viewBox="0 0 1024 1024" version="1.1" xmlns="http://www.w3.org/2000/svg"><path d="M258.986667 514.773333V190.293333a12.373333 12.373333 0 0 0-12.373334-12.16h-30.72a12.373333 12.373333 0 0 0-12.373333 12.16v324.48a116.693333 116.693333 0 0 0 0 226.773334v92.16a12.373333 12.373333 0 0 0 12.373333 12.16h30.72a12.373333 12.373333 0 0 0 12.373334-12.16v-92.16a116.693333 116.693333 0 0 0 0-226.773334z m-27.733334 174.72a61.44 61.44 0 1 1 61.226667-61.44 61.44 61.44 0 0 1-61.226667 61.44zM909.653333 628.053333a117.12 117.12 0 0 0-89.173333-113.28V190.293333a12.373333 12.373333 0 0 0-12.16-12.16h-30.933333a12.373333 12.373333 0 0 0-12.373334 12.16v324.48a116.693333 116.693333 0 0 0 0 226.773334v92.16a12.373333 12.373333 0 0 0 12.373334 12.16h30.933333a12.373333 12.373333 0 0 0 12.16-12.16v-92.16a117.333333 117.333333 0 0 0 89.173333-113.493334z m-116.906666 61.44A61.44 61.44 0 1 1 853.333333 628.053333a61.44 61.44 0 0 1-60.586666 61.44zM539.733333 283.733333V190.293333a12.373333 12.373333 0 0 0-12.373333-12.16h-30.72a12.373333 12.373333 0 0 0-12.373333 12.16v93.44a116.693333 116.693333 0 0 0 0 226.56v323.413334a12.373333 12.373333 0 0 0 12.373333 12.16h30.72a12.373333 12.373333 0 0 0 12.373333-12.16V510.293333a116.48 116.48 0 0 0 0-226.56zM512 458.24a61.44 61.44 0 1 1 61.44-61.226667A61.44 61.44 0 0 1 512 458.24z" /></svg>
