<?xml version="1.0" standalone="no"?><!DOCTYPE svg PUBLIC "-//W3C//DTD SVG 1.1//EN" "http://www.w3.org/Graphics/SVG/1.1/DTD/svg11.dtd"><svg class="icon" width="200px" height="200.00px" viewBox="0 0 1024 1024" version="1.1" xmlns="http://www.w3.org/2000/svg"><path d="M96 1011.2c-12.8 0-32-12.8-32-32 0-57.6 12.8-115.2 32-172.8 19.2-51.2 51.2-102.4 96-140.8S281.6 595.2 332.8 576c32-12.8 70.4-25.6 102.4-32 12.8 0 25.6 12.8 38.4 12.8 6.4 0 19.2 6.4 32 6.4h25.6c12.8 0 38.4-12.8 38.4 6.4 0 12.8-12.8 25.6-32 25.6h-32c-211.2 0-384 172.8-384 384 0 12.8-12.8 32-25.6 32z"  /><path d="M531.2 608C448 608 371.2 576 313.6 518.4 256 460.8 224 384 224 307.2S256 147.2 313.6 89.6C371.2 32 448 0 531.2 0c83.2 0 160 32 217.6 89.6 57.6 57.6 89.6 134.4 89.6 217.6 0 83.2-32 160-89.6 217.6-57.6 51.2-134.4 83.2-217.6 83.2z m0-544c-64 0-128 25.6-172.8 70.4-44.8 44.8-70.4 108.8-70.4 172.8s25.6 128 70.4 172.8c89.6 89.6 249.6 89.6 339.2 0 44.8-44.8 70.4-108.8 70.4-172.8 0-64-25.6-128-70.4-172.8C652.8 89.6 595.2 64 531.2 64zM524.8 697.6H896c19.2 0 32 12.8 32 32s-12.8 32-32 32H524.8c-19.2 0-32-12.8-32-32 0-12.8 19.2-32 32-32zM524.8 806.4H896c19.2 0 32 12.8 32 32s-12.8 32-32 32H524.8c-19.2 0-32-12.8-32-32 0-12.8 19.2-32 32-32zM524.8 915.2H896c19.2 0 32 12.8 32 32s-12.8 32-32 32H524.8c-19.2 0-32-12.8-32-32s19.2-32 32-32z"  /></svg>
