<?xml version="1.0" standalone="no"?><!DOCTYPE svg PUBLIC "-//W3C//DTD SVG 1.1//EN" "http://www.w3.org/Graphics/SVG/1.1/DTD/svg11.dtd"><svg class="icon" width="200px" height="200.00px" viewBox="0 0 1024 1024" version="1.1" xmlns="http://www.w3.org/2000/svg"><path d="M608 64a64 64 0 0 1 64 64v192a64 64 0 0 1-64 64h-192a64 64 0 0 1-64-64V128a64 64 0 0 1 64-64h192z m0 64h-192v192h192V128zM576 704a64 64 0 0 1 64 64v128a64 64 0 0 1-64 64H448a64 64 0 0 1-64-64v-128a64 64 0 0 1 64-64h128z m0 64H448v128h128v-128z"  /><path d="M480 384h64v320h-64z"  /><path d="M832 480a96 96 0 0 1 95.552 86.784L928 576v192h-64V576a32 32 0 0 0-26.24-31.488L832 544H192a32 32 0 0 0-31.488 26.24L160 576v192h-64V576a96 96 0 0 1 86.784-95.552L192 480h640z"  /><path d="M192 704a64 64 0 0 1 64 64v128a64 64 0 0 1-64 64H64a64 64 0 0 1-64-64v-128a64 64 0 0 1 64-64h128z m0 64H64v128h128v-128zM960 704a64 64 0 0 1 64 64v128a64 64 0 0 1-64 64h-128a64 64 0 0 1-64-64v-128a64 64 0 0 1 64-64h128z m0 64h-128v128h128v-128z"  /></svg>
